<svg width="13266" height="10712" viewBox="0 0 13266 10712" fill="none" xmlns="http://www.w3.org/2000/svg">
<path d="M3540.78 2017L2302.78 2731.33C2233.53 2771.17 2190.86 2845.07 2190.85 2925.21L2191.76 7793.99C2191.88 7873.89 2234.4 7947.86 2303.54 7987.77L6520.93 10422.7C6590.07 10462.6 6675.48 10462.8 6744.64 10422.6L7356.06 10069.8C7425.32 10029.9 7467.98 9956.03 7468 9875.89L7467.93 6942.6C7467.81 6862.7 7425.29 6788.73 7356.15 6748.81L6107.57 6027.94C5958.35 5941.8 5772.07 6049.35 5772.05 6221.68L5771.95 7673.2C5771.93 7845.52 5585.41 7952.94 5436.44 7866.93L3988.27 7030.83C3919.13 6990.91 3876.24 6917.05 3876.49 6837.04L3876.27 2210.7C3876.29 2038.37 3689.77 1930.68 3540.78 2017Z" fill="#F5F5F5"/>
<path d="M5772.04 858.585L5771.88 3761C5772 3840.91 5814.51 3914.87 5883.65 3954.79L7132.71 4675.94C7281.92 4762.08 7468.34 4654.29 7468.23 4482.2L7468.33 3089.93C7468.35 2917.6 7654.64 2810.05 7803.85 2896.2L9253.2 3732.98C9322.34 3772.9 9365.23 3846.77 9364.98 3926.77L9364.76 8523.71C9364.74 8696.04 9551.26 8803.72 9700.49 8717.54L10963.2 7988.36C11032.5 7948.51 11075.1 7874.62 11075.2 7794.48L11074 2925.56C11073.9 2845.66 11031.4 2771.69 10962.2 2731.77L6744.84 296.862C6675.7 256.943 6590.28 256.733 6521.12 296.955L5883.6 664.805C5814.34 704.652 5771.68 778.545 5771.66 858.686L5772.04 858.585Z" fill="#F5F5F5"/>
</svg>
